<svg xmlns="http://www.w3.org/2000/svg" viewBox="0 0 96 96" fill="none">
  <path d="M13 3H83L93 13V83L83 93H13L3 83V13Z" fill="#fff" fill-opacity=".1"/>
  <path d="M13 3H83L70 23H26Z" fill="#fff" fill-opacity=".4"/>
  <path d="M3 13 13 3 26 23 20 69 3 83Z" fill="#fff" fill-opacity=".22"/>
  <path d="M83 3 93 13 93 83 74 68 70 23Z" fill="#000" fill-opacity=".14"/>
  <path d="M3 83 13 93 83 93 93 83 74 68 20 69Z" fill="#000" fill-opacity=".28"/>
  <path d="M13 3 26 23 3 13Z" fill="#fff" fill-opacity=".64"/>
  <path d="M83 3 93 13 70 23Z" fill="#fff" fill-opacity=".22"/>
  <path d="M3 83 20 69 13 93Z" fill="#fff" fill-opacity=".24"/>
  <path d="M93 83 83 93 74 68Z" fill="#000" fill-opacity=".2"/>
  <path d="M26 23H70L74 68 20 69Z" fill="#fff" fill-opacity=".055"/>
  <path d="M26 23H70L39 45Z" fill="#fff" fill-opacity=".15"/>
  <path d="M70 23 74 68 39 45Z" fill="#000" fill-opacity=".075"/>
  <path d="M39 45 74 68 20 69Z" fill="#fff" fill-opacity=".08"/>
  <path d="M26 23 39 45 20 69Z" fill="#fff" fill-opacity=".23"/>
  <path d="M13 4H82M4 14V81" stroke="#fff" stroke-opacity=".4" stroke-width="1.5" stroke-linecap="round"/>
  <path d="M26 23H70L74 68" stroke="#fff" stroke-opacity=".23" stroke-width="1"/>
  <path d="M15 92H82L92 82" stroke="#000" stroke-opacity=".2" stroke-width="1.5" stroke-linecap="round"/>
  <path d="M75 9 76.5 13.5 81 15 76.5 16.5 75 21 73.5 16.5 69 15 73.5 13.5Z" fill="#fff" fill-opacity=".92"/>
</svg>
