<svg xmlns="http://www.w3.org/2000/svg" viewBox="0 0 420 120" width="420" height="120" fill="#fff">
  <title>Block-Blast pattern</title>
  <desc>Flaticon UIcons vector glyphs arranged as a decorative game pattern.</desc>
  <metadata>Source: https://github.com/freepik-company/flaticon-uicons; License: https://github.com/freepik-company/flaticon-uicons/blob/main/LICENSE</metadata>
  <defs>
    <symbol id="cube" viewBox="12 -299 276 299"><path d="M257 247 181 291Q167 299 150.0 299.0Q133 299 119 291L43 247Q29 239 20.5 224.5Q12 210 12 193V106Q12 89 20.5 74.5Q29 60 43 52L119 9Q133 0 150.0 0.0Q167 0 181 9L257 52Q271 60 279.5 74.5Q288 89 288 106V193Q288 210 279.5 224.5Q271 239 257 247ZM131 269Q140 274 150.0 274.0Q160 274 169 269L244 226Q247 224 249 222L172 177Q162 171 150.0 171.0Q138 171 128 177L51 222Q53 224 56 226ZM56 74Q47 79 42.0 87.5Q37 96 37 106V193Q37 197 38 200L115 155Q126 149 137 147V28Q134 29 131 30ZM263 106Q263 96 258.0 87.5Q253 79 244 74L169 30Q166 29 163 28V147Q174 149 185 155L262 200Q263 197 263 193Z" transform="scale(1 -1)"/></symbol>
    <symbol id="cubes-stacked" viewBox="6 -287.083 288 287.083"><path d="M256 113H248Q250 119 250 125V163Q250 178 239.0 189.0Q228 200 213 200H204Q206 206 206 213V250Q206 266 195.0 276.5Q184 287 169 287H131Q116 288 105.0 277.0Q94 266 94 250V213Q94 206 96 200H88Q72 200 61.0 189.0Q50 178 50 163V125Q50 119 52 113H44Q28 113 17.0 102.0Q6 91 6 75V38Q6 22 17.0 11.0Q28 0 44 0H81Q95 0 106 10Q117 0 131 0H169Q183 0 194 10Q205 0 219 0H256Q272 0 283.0 11.0Q294 22 294 38V75Q294 91 283.0 102.0Q272 113 256 113ZM225 163V125Q225 120 221.5 116.5Q218 113 212 113H175Q170 113 166.5 116.5Q163 120 163 125V163Q163 168 166.5 171.5Q170 175 175 175H213Q218 175 221.5 171.5Q225 168 225 162ZM119 250Q119 255 122.5 259.0Q126 263 131 263H169Q174 263 177.5 259.0Q181 255 181 250V213Q181 207 177.5 203.5Q174 200 169 200H131Q126 200 122.5 203.5Q119 207 119 213ZM75 163Q75 168 78.5 171.5Q82 175 87 175H125Q130 175 133.5 171.5Q137 168 137 162V125Q138 120 134.0 116.5Q130 113 125 113H88Q82 113 78.5 116.5Q75 120 75 125ZM81 25H44Q39 25 35.0 28.5Q31 32 31 38V75Q31 80 35.0 84.0Q39 88 44 88H81Q86 88 90.0 84.0Q94 80 94 75V38Q94 32 90.0 28.5Q86 25 81 25ZM169 25H131Q126 25 122.5 28.5Q119 32 119 38V75Q119 80 122.5 84.0Q126 88 131 88H169Q174 88 177.5 84.0Q181 80 181 75V38Q181 32 177.5 28.5Q174 25 169 25ZM269 38Q269 32 265.0 28.5Q261 25 256 25H219Q214 25 210.0 28.5Q206 32 206 38V75Q206 80 210.0 84.0Q214 88 219 88H256Q261 88 265.0 84.0Q269 80 269 75Z" transform="scale(1 -1)"/></symbol>
    <symbol id="puzzle-piece-integration" viewBox="0 -300 297.062 300"><path d="M0 190Q0 189 0.0 189.5Q0 190 0 190ZM295 41Q292 34 285 34Q281 34 278 36L266 43Q254 30 237 27V13Q237 7 233.5 3.5Q230 0 225.0 0.0Q220 0 216.5 3.5Q213 7 213 13V27Q196 30 184 43L172 36Q169 34 165 34Q158 34 155.0 39.5Q152 45 153.5 50.0Q155 55 159 58L171 65Q169 74 169.0 81.5Q169 89 171 98L159 105Q155 107 153.5 112.0Q152 117 154.5 121.5Q157 126 162.0 127.5Q167 129 172 126L184 119Q196 132 213 136V150Q212 155 216.0 159.0Q220 163 225.0 163.0Q230 163 234.0 159.0Q238 155 237 150V136Q254 132 266 119L278 126Q283 129 288.0 127.5Q293 126 295.5 121.5Q298 117 296.5 112.0Q295 107 291 105L279 98Q281 89 281.0 81.5Q281 74 279 65L291 58Q295 55 296.5 50.0Q298 45 295 41ZM256 81Q256 94 247.0 103.5Q238 113 225.0 113.0Q212 113 203.0 103.5Q194 94 194.0 81.0Q194 68 203.0 59.0Q212 50 225.0 50.0Q238 50 247.0 59.0Q256 68 256 81ZM88 238H150Q160 238 167.5 230.5Q175 223 175 213V175Q175 170 178.5 166.5Q182 163 187.5 163.0Q193 163 196.5 166.5Q200 170 200 175V213Q200 233 185.5 247.5Q171 262 150 262H142L144 276Q144 286 136.5 293.0Q129 300 117 300Q106 299 99.5 291.5Q93 284 94 274L96 263H88Q67 262 52.0 247.5Q37 233 37 213V204L24 206Q14 206 7.0 198.5Q0 191 0.0 180.5Q0 170 8.0 163.0Q16 156 26 156L38 158V150Q38 129 52.5 114.5Q67 100 88 100H106Q112 100 117.0 103.5Q122 107 124 113Q129 128 138 141Q140 145 140.0 149.0Q140 153 137 156Q130 162 118.5 162.0Q107 162 100.5 154.5Q94 147 94 136L95 125H87Q77 125 69.5 132.5Q62 140 62 150V212Q62 223 69.5 230.0Q77 237 87 237Z" transform="scale(1 -1)"/></symbol>
    <symbol id="grid" viewBox="0 -300 300 300"><path d="M56 81H25Q15 81 7.5 74.0Q0 67 0 56V25Q0 15 7.5 7.5Q15 0 25 0H56Q67 0 74.0 7.5Q81 15 81 25V56Q81 67 74.0 74.0Q67 81 56 81ZM56 25H25V56H56ZM275 81H244Q233 81 226.0 74.0Q219 67 219 56V25Q219 15 226.0 7.5Q233 0 244 0H275Q285 0 292.5 7.5Q300 15 300 25V56Q300 67 292.5 74.0Q285 81 275 81ZM275 25H244V56H275ZM56 191H25Q15 191 7.5 183.5Q0 176 0 166V134Q0 124 7.5 116.5Q15 109 25 109H56Q67 109 74.0 116.5Q81 124 81 134V166Q81 176 74.0 183.5Q67 191 56 191ZM56 134H25V166H56ZM275 191H244Q233 191 226.0 183.5Q219 176 219 166V134Q219 124 226.0 116.5Q233 109 244 109H275Q285 109 292.5 116.5Q300 124 300 134V166Q300 176 292.5 183.5Q285 191 275 191ZM275 134H244V166H275ZM56 300H25Q15 300 7.5 292.5Q0 285 0 275V244Q0 233 7.5 226.0Q15 219 25 219H56Q67 219 74.0 226.0Q81 233 81 244V275Q81 285 74.0 292.5Q67 300 56 300ZM56 244H25V275H56ZM166 81H134Q124 81 116.5 74.0Q109 67 109 56V25Q109 15 116.5 7.5Q124 0 134 0H166Q176 0 183.5 7.5Q191 15 191 25V56Q191 67 183.5 74.0Q176 81 166 81ZM166 25H134V56H166ZM166 191H134Q124 191 116.5 183.5Q109 176 109 166V134Q109 124 116.5 116.5Q124 109 134 109H166Q176 109 183.5 116.5Q191 124 191 134V166Q191 176 183.5 183.5Q176 191 166 191ZM166 134H134V166H166ZM166 300H134Q124 300 116.5 292.5Q109 285 109 275V244Q109 233 116.5 226.0Q124 219 134 219H166Q176 219 183.5 226.0Q191 233 191 244V275Q191 285 183.5 292.5Q176 300 166 300ZM166 244H134V275H166ZM275 300H244Q233 300 226.0 292.5Q219 285 219 275V244Q219 233 226.0 226.0Q233 219 244 219H275Q285 219 292.5 226.0Q300 233 300 244V275Q300 285 292.5 292.5Q285 300 275 300ZM275 244H244V275H275Z" transform="scale(1 -1)"/></symbol>
  </defs>
  <g transform="rotate(-13 29 33)" opacity="0.13"><use href="#cube" x="11" y="15" width="36" height="36"/></g>
  <g transform="rotate(8 115.5 79.5)" opacity="0.11"><use href="#cubes-stacked" x="93" y="57" width="45" height="45"/></g>
  <g transform="rotate(-8 206 24)" opacity="0.1"><use href="#puzzle-piece-integration" x="190" y="8" width="32" height="32"/></g>
  <g transform="rotate(12 288.5 85.5)" opacity="0.09"><use href="#grid" x="273" y="70" width="31" height="31"/></g>
  <g transform="rotate(14 385 38)" opacity="0.12"><use href="#cube" x="365" y="18" width="40" height="40"/></g>
</svg>
